<mxfile host="Electron" modified="2025-03-26T12:03:44.642Z" agent="Mozilla/5.0 (Windows NT 10.0; Win64; x64) AppleWebKit/537.36 (KHTML, like Gecko) draw.io/22.1.11 Chrome/114.0.5735.289 Electron/25.9.8 Safari/537.36" etag="WKHkAABu35A3eKzge1oz" version="22.1.11" type="device">
  <diagram name="Page-1" id="h6x8shMLzg4MHrVD2D5i">
    <mxGraphModel dx="1036" dy="614" grid="1" gridSize="10" guides="1" tooltips="1" connect="1" arrows="1" fold="1" page="1" pageScale="1" pageWidth="850" pageHeight="1100" math="0" shadow="0">
      <root>
        <mxCell id="0" />
        <mxCell id="1" parent="0" />
        <mxCell id="KwtfFM4vp8VYnVF93vCt-3" style="edgeStyle=orthogonalEdgeStyle;rounded=0;orthogonalLoop=1;jettySize=auto;html=1;exitX=0.5;exitY=1;exitDx=0;exitDy=0;entryX=0.5;entryY=0;entryDx=0;entryDy=0;" parent="1" source="KwtfFM4vp8VYnVF93vCt-1" target="KwtfFM4vp8VYnVF93vCt-2" edge="1">
          <mxGeometry relative="1" as="geometry" />
        </mxCell>
        <mxCell id="KwtfFM4vp8VYnVF93vCt-1" value="User Connects to Chat&lt;br&gt;" style="rounded=0;whiteSpace=wrap;html=1;" parent="1" vertex="1">
          <mxGeometry x="330" y="70" width="120" height="60" as="geometry" />
        </mxCell>
        <mxCell id="KwtfFM4vp8VYnVF93vCt-5" style="edgeStyle=orthogonalEdgeStyle;rounded=0;orthogonalLoop=1;jettySize=auto;html=1;exitX=0.5;exitY=1;exitDx=0;exitDy=0;entryX=0.5;entryY=0;entryDx=0;entryDy=0;" parent="1" source="KwtfFM4vp8VYnVF93vCt-2" target="KwtfFM4vp8VYnVF93vCt-4" edge="1">
          <mxGeometry relative="1" as="geometry" />
        </mxCell>
        <mxCell id="KwtfFM4vp8VYnVF93vCt-2" value="User Opens a Chat with Another User" style="rounded=0;whiteSpace=wrap;html=1;" parent="1" vertex="1">
          <mxGeometry x="330" y="180" width="120" height="60" as="geometry" />
        </mxCell>
        <mxCell id="KwtfFM4vp8VYnVF93vCt-7" style="edgeStyle=orthogonalEdgeStyle;rounded=0;orthogonalLoop=1;jettySize=auto;html=1;exitX=0.5;exitY=1;exitDx=0;exitDy=0;entryX=0.5;entryY=0;entryDx=0;entryDy=0;" parent="1" source="KwtfFM4vp8VYnVF93vCt-4" target="KwtfFM4vp8VYnVF93vCt-6" edge="1">
          <mxGeometry relative="1" as="geometry" />
        </mxCell>
        <mxCell id="KwtfFM4vp8VYnVF93vCt-4" value="Set Unseen Messages to Seen" style="rounded=0;whiteSpace=wrap;html=1;" parent="1" vertex="1">
          <mxGeometry x="330" y="290" width="120" height="60" as="geometry" />
        </mxCell>
        <mxCell id="KwtfFM4vp8VYnVF93vCt-9" style="edgeStyle=orthogonalEdgeStyle;rounded=0;orthogonalLoop=1;jettySize=auto;html=1;exitX=0.5;exitY=1;exitDx=0;exitDy=0;entryX=0.5;entryY=0;entryDx=0;entryDy=0;" parent="1" source="KwtfFM4vp8VYnVF93vCt-6" target="KwtfFM4vp8VYnVF93vCt-8" edge="1">
          <mxGeometry relative="1" as="geometry" />
        </mxCell>
        <mxCell id="0LT4z6laYTkM9eoYRebM-2" style="edgeStyle=orthogonalEdgeStyle;rounded=0;orthogonalLoop=1;jettySize=auto;html=1;exitX=1;exitY=0.5;exitDx=0;exitDy=0;entryX=0.5;entryY=0;entryDx=0;entryDy=0;" edge="1" parent="1" source="KwtfFM4vp8VYnVF93vCt-6" target="0LT4z6laYTkM9eoYRebM-1">
          <mxGeometry relative="1" as="geometry" />
        </mxCell>
        <mxCell id="KwtfFM4vp8VYnVF93vCt-6" value="If Sender has Chat open&lt;br&gt;&amp;nbsp;with Receiver" style="rhombus;whiteSpace=wrap;html=1;" parent="1" vertex="1">
          <mxGeometry x="305" y="390" width="170" height="160" as="geometry" />
        </mxCell>
        <mxCell id="KwtfFM4vp8VYnVF93vCt-8" value="Emit Sender to get messages&lt;br&gt;" style="rounded=0;whiteSpace=wrap;html=1;" parent="1" vertex="1">
          <mxGeometry x="330" y="600" width="120" height="60" as="geometry" />
        </mxCell>
        <mxCell id="0LT4z6laYTkM9eoYRebM-1" value="Emit Sender to get users" style="rounded=0;whiteSpace=wrap;html=1;" vertex="1" parent="1">
          <mxGeometry x="510" y="600" width="120" height="60" as="geometry" />
        </mxCell>
        <mxCell id="0LT4z6laYTkM9eoYRebM-3" value="Else" style="text;html=1;strokeColor=none;fillColor=none;align=center;verticalAlign=middle;whiteSpace=wrap;rounded=0;" vertex="1" parent="1">
          <mxGeometry x="475" y="450" width="45" height="20" as="geometry" />
        </mxCell>
      </root>
    </mxGraphModel>
  </diagram>
</mxfile>
